<svg width="23" height="23" viewBox="0 0 23 23" fill="none" xmlns="http://www.w3.org/2000/svg">
<g clip-path="url(#clip0)">
<path d="M7.79608 1.0354e-06C7.59114 0.0389793 7.40657 0.149131 7.27497 0.310999C7.14337 0.472867 7.07321 0.676036 7.07689 0.884616V1.76923H3.89758C3.18989 1.76923 2.65381 2.30531 2.65381 3.013V21.6731C2.65381 22.4692 3.18989 23 3.89758 23H19.0192C19.7269 23 20.263 22.4639 20.263 21.7562V3.013C20.3514 2.30531 19.81 1.76923 19.1023 1.76923H15.923V0.884616C15.923 0.650002 15.8298 0.424996 15.6639 0.259099C15.498 0.0932013 15.273 1.0354e-06 15.0384 1.0354e-06H7.9615C7.9338 -0.00130243 7.90605 -0.00130243 7.87835 1.0354e-06C7.85064 -0.00130243 7.8229 -0.00130243 7.79519 1.0354e-06H7.79608ZM8.84612 1.76923H14.1538V3.53846H8.84612V1.76923ZM4.42304 3.53846H7.07689V4.42308C7.07689 4.65769 7.17009 4.8827 7.33598 5.0486C7.50188 5.21449 7.72689 5.30769 7.9615 5.30769H15.0384C15.273 5.30769 15.498 5.21449 15.6639 5.0486C15.8298 4.8827 15.923 4.65769 15.923 4.42308V3.53846H18.5769V21.2308H4.42304V3.53846ZM6.19227 7.96154V11.5H9.73073V7.96154H6.19227ZM7.07689 8.84616H8.84612V10.6154H7.07689V8.84616ZM11.5 8.84616V10.6154H16.8077V8.84616H11.5ZM6.19227 13.2692V16.8077H9.73073V13.2692H6.19227ZM11.5 14.1538V15.9231H16.8077V14.1538H11.5Z" fill="#FBFBFB"/>
</g>
<defs>
<clipPath id="clip0">
<rect width="23" height="23" fill="white"/>
</clipPath>
</defs>
</svg>
