<svg width="57" height="63" viewBox="0 0 57 63" fill="none" xmlns="http://www.w3.org/2000/svg">
<path d="M50.1422 0C53.8435 0 56.8243 2.98463 57 6.50081V63L49.9567 57.0327L46.0915 53.5264L41.8651 49.8547L43.624 55.6388H6.68208C2.99065 55.6388 0 52.8491 0 49.138V6.51263C0 2.99644 2.99262 0.0118125 6.69392 0.0118125H50.1225L50.1422 0ZM34.0401 14.9192H33.9572L33.4222 15.4429C38.8824 17.0218 41.5236 19.4827 41.5236 19.4827C38.0079 17.7286 34.8297 16.8466 31.6634 16.4883C29.3814 16.1398 27.0876 16.3249 25.155 16.4883H24.6201C23.3863 16.4883 20.7549 17.0218 17.2273 18.4255C16.0034 18.9591 15.2948 19.3075 15.2948 19.3075C15.2948 19.3075 17.9261 16.6714 23.7456 15.2677L23.3863 14.9192C23.3863 14.9192 18.9862 14.744 14.2367 18.2523C14.2367 18.2523 9.48717 26.5072 9.48717 36.6778C9.48717 36.6778 12.1185 41.2414 19.3376 41.4146C19.3376 41.4146 20.3956 40.0207 21.4557 38.7903C17.405 37.5598 15.8218 35.0989 15.8218 35.0989C15.8218 35.0989 16.1811 35.2741 16.7062 35.6226H16.8602C16.9431 35.6226 16.9845 35.6639 17.024 35.7052V35.7249C17.0655 35.7663 17.1069 35.7958 17.178 35.7958C18.0525 36.1541 18.9151 36.5026 19.6258 36.8511C20.8595 37.3748 22.4328 37.9063 24.3654 38.2567C26.8132 38.6151 29.6183 38.7804 32.8162 38.2567C34.3895 37.8984 35.9727 37.5598 37.5558 36.8511C38.5744 36.3274 39.8378 35.8057 41.2256 34.9138C41.2256 34.9138 39.6523 37.3747 35.4259 38.6052C36.2905 39.8258 37.5124 41.2296 37.5124 41.2296C44.7393 41.0662 47.5464 36.5026 47.7004 36.6975C47.7004 26.5368 42.9193 18.272 42.9193 18.272C38.6218 15.0826 34.5909 14.9605 33.8822 14.9605L34.0263 14.9093L34.0401 14.9192ZM34.4823 26.5072C36.3339 26.5072 37.8243 28.0763 37.8243 30.0037C37.8243 31.9528 36.3241 33.5199 34.4823 33.5199C32.6306 33.5199 31.1403 31.9508 31.1403 30.0234C31.1403 28.0744 32.6405 26.5072 34.4823 26.5072ZM22.5256 26.5072C24.3654 26.5072 25.8578 28.0763 25.8578 30.0037C25.8578 31.9528 24.3575 33.5199 22.5157 33.5199C20.6641 33.5199 19.1638 31.9508 19.1638 30.0234C19.1638 28.0744 20.6641 26.5072 22.5157 26.5072H22.5256Z" fill="#736666"/>
</svg>
