<svg width="45" height="46" viewBox="0 0 45 46" fill="none" xmlns="http://www.w3.org/2000/svg">
<path d="M43.5234 31.7687L40.4297 15.8844C39.7266 12.2188 36.6328 9.41562 32.9062 9.34375H12.1641C8.36719 9.34375 5.20312 12.1469 4.57031 15.8844L1.47656 31.7687C1.40625 32.0562 1.40625 32.3438 1.40625 32.6312C1.40625 34.8594 3.16406 36.6562 5.27344 36.6562C6.67969 36.6562 7.875 35.9375 8.57812 34.7875L13.6406 28.3188C14.4844 29.1094 15.5391 29.6125 16.7344 29.6125C19.2656 29.6125 21.3047 27.5281 21.3047 24.8687H23.7656C23.7656 27.4562 25.8047 29.6125 28.3359 29.6125C29.5312 29.6125 30.5859 29.1812 31.4297 28.3906L36.4922 34.8594C37.1953 36.0094 38.3906 36.7281 39.7969 36.7281C41.9062 36.7281 43.6641 34.9312 43.6641 32.7031C43.5938 32.3437 43.5938 32.0562 43.5234 31.7687Z" fill="#333333"/>
<path d="M14.6953 18.1125C15.1875 18.6157 15.75 18.4719 15.9609 17.7532V15.525C15.75 14.8063 15.1875 14.6625 14.6953 15.1657L14.2031 15.6688C13.7109 16.1719 13.7109 17.0344 14.2031 17.5375L14.6953 18.1125Z" fill="#94989B"/>
<path d="M11.1095 12.7938C10.4064 13.0094 10.2658 13.5844 10.7579 14.0875L11.2501 14.5906C11.7423 15.0938 12.5861 15.0938 13.0782 14.5906L13.5704 14.0875C14.0626 13.5844 13.922 13.0094 13.2189 12.7938H11.1095Z" fill="#94989B"/>
<path d="M9.70313 15.2375C9.21094 14.7344 8.64844 14.8782 8.4375 15.5969V17.825C8.64844 18.5438 9.21094 18.6875 9.70313 18.1844L10.1953 17.6813C10.6875 17.1782 10.6875 16.3157 10.1953 15.8125L9.70313 15.2375Z" fill="#94989B"/>
<path d="M13.2889 20.6281C13.9921 20.4125 14.1327 19.8375 13.6405 19.3344L13.1483 18.8313C12.6561 18.3281 11.8124 18.3281 11.3202 18.8313L10.828 19.3344C10.3358 19.8375 10.4764 20.4125 11.1796 20.6281H13.2889Z" fill="#94989B"/>
<path d="M34.8047 16.675C34.1016 16.675 33.5391 17.25 33.5391 17.9688C33.5391 18.6875 34.1016 19.2625 34.8047 19.2625C35.5078 19.2625 36.0703 18.6875 36.0703 17.9688C36.0703 17.25 35.5078 16.675 34.8047 16.675Z" fill="#E5B7BE"/>
<path d="M31.0781 18.0406C30.375 18.0406 29.8125 18.6156 29.8125 19.3344C29.8125 20.0531 30.375 20.6281 31.0781 20.6281C31.7812 20.6281 32.3437 20.0531 32.3437 19.3344C32.4141 18.6156 31.7812 18.0406 31.0781 18.0406Z" fill="#E5B7BE"/>
<path d="M34.6641 15.3813C35.3672 15.3813 35.9297 14.8063 35.9297 14.0875C35.9297 13.3688 35.3672 12.7938 34.6641 12.7938C33.9609 12.7938 33.3984 13.3688 33.3984 14.0875C33.3984 14.7344 33.9609 15.3813 34.6641 15.3813Z" fill="#E5B7BE"/>
<path d="M31.0078 16.675C31.7109 16.675 32.2734 16.1 32.2734 15.3813C32.2734 14.6625 31.7109 14.0875 31.0078 14.0875C30.3047 14.0875 29.7422 14.6625 29.7422 15.3813C29.7422 16.1 30.3047 16.675 31.0078 16.675Z" fill="#E5B7BE"/>
<path d="M28.3359 27.9594C30.0057 27.9594 31.3594 26.5435 31.3594 24.7969C31.3594 23.0503 30.0057 21.6344 28.3359 21.6344C26.6661 21.6344 25.3125 23.0503 25.3125 24.7969C25.3125 26.5435 26.6661 27.9594 28.3359 27.9594Z" fill="#94989B"/>
<path d="M16.7344 21.6344C15.0469 21.6344 13.7109 23.0719 13.7109 24.7969C13.7109 26.5219 15.0469 27.9594 16.7344 27.9594C18.4219 27.9594 19.7578 26.5219 19.7578 24.7969C19.8281 23.0719 18.4219 21.6344 16.7344 21.6344Z" fill="#94989B"/>
</svg>
