<svg width="57" height="57" viewBox="0 0 57 57" fill="none" xmlns="http://www.w3.org/2000/svg">
<path d="M28.1142 18.7333C33.2751 18.7333 37.4868 22.9451 37.4868 28.106C37.4868 33.2669 33.2751 37.4787 28.1142 37.4787C22.9532 37.4787 18.7415 33.2669 18.7415 28.106C18.7415 22.9451 22.9532 18.7333 28.1142 18.7333ZM0.00322342 28.106C0.00322342 24.2247 -0.0319328 20.3787 0.186035 16.5044C0.404003 12.0044 1.43056 8.01068 4.72119 4.72006C8.01885 1.4224 12.0056 0.402873 16.5056 0.184904C20.3868 -0.0330649 24.2329 0.0020914 28.1071 0.0020914C31.9884 0.0020914 35.8345 -0.0330649 39.7087 0.184904C44.2087 0.402873 48.2024 1.42944 51.4931 4.72006C54.7907 8.01772 55.8103 12.0044 56.0282 16.5044C56.2462 20.3857 56.211 24.2318 56.211 28.106C56.211 31.9802 56.2462 35.8333 56.0282 39.7076C55.8103 44.2076 54.7837 48.2013 51.4931 51.4919C48.1954 54.7896 44.2087 55.8091 39.7087 56.0271C35.8274 56.2451 31.9814 56.2099 28.1071 56.2099C24.2259 56.2099 20.3798 56.2451 16.5056 56.0271C12.0056 55.8091 8.01182 54.7826 4.72119 51.4919C1.42353 48.1943 0.404003 44.2076 0.186035 39.7076C-0.0389633 35.8333 0.00322342 31.9872 0.00322342 28.106ZM28.1142 42.5271C36.0946 42.5271 42.5353 36.0865 42.5353 28.106C42.5353 20.1255 36.0946 13.6849 28.1142 13.6849C20.1337 13.6849 13.6931 20.1255 13.6931 28.106C13.6931 36.0865 20.1337 42.5271 28.1142 42.5271ZM13.1024 16.4622C14.9657 16.4622 16.4704 14.9576 16.4704 13.0943C16.4704 11.231 14.9657 9.72631 13.1024 9.72631C11.2392 9.72631 9.73447 11.231 9.73447 13.0943C9.73392 13.5367 9.82066 13.9749 9.98972 14.3838C10.1588 14.7927 10.4068 15.1642 10.7197 15.477C11.0325 15.7899 11.404 16.0379 11.8129 16.207C12.2218 16.3761 12.66 16.4628 13.1024 16.4622Z" fill="#736666"/>
</svg>
