<svg width="57" height="57" viewBox="0 0 57 57" fill="none" xmlns="http://www.w3.org/2000/svg">
<path d="M56.6383 12.8832C56.6147 11.6676 56.5173 10.4546 56.3465 9.25083C56.143 8.18012 55.7971 7.14146 55.318 6.1625C54.2693 4.09219 52.588 2.40996 50.5183 1.36C49.5457 0.883186 48.5137 0.538255 47.4498 0.334333C46.2369 0.160034 45.0143 0.0606788 43.7892 0.0368334C43.2707 0.017 42.5992 0.00850006 42.2875 0.00850006L14.3848 0C14.0732 0 13.4017 0.00849997 12.8832 0.0283333C11.6676 0.0517554 10.4546 0.149213 9.25083 0.320166C8.18012 0.523713 7.14146 0.869616 6.1625 1.34867C4.0923 2.39757 2.41012 4.07876 1.36 6.14833C0.883311 7.12106 0.538385 8.15298 0.334333 9.21683C0.159243 10.4297 0.0589421 11.6523 0.0340002 12.8775C0.0170002 13.396 0.00566693 14.0675 0.00566693 14.3792L0 42.2818C0 42.5935 0.00849997 43.265 0.0283333 43.7835C0.0517554 44.9991 0.149213 46.2121 0.320166 47.4158C0.523746 48.4865 0.869647 49.5252 1.34867 50.5042C2.39757 52.5744 4.07876 54.2565 6.14833 55.3067C7.12109 55.7833 8.15299 56.1282 9.21683 56.3323C10.4298 56.5067 11.6523 56.606 12.8775 56.6298C13.396 56.6497 14.0675 56.6582 14.3792 56.6582L42.2818 56.6638C42.5935 56.6638 43.265 56.6553 43.7835 56.6355C44.9991 56.612 46.2121 56.5145 47.4158 56.3437C48.4865 56.14 49.5252 55.7941 50.5042 55.3152C52.5754 54.2668 54.2586 52.5855 55.3095 50.5155C55.7863 49.5428 56.1312 48.5109 56.3352 47.447C56.5103 46.2341 56.6106 45.0116 56.6355 43.7863C56.6525 43.2678 56.6638 42.5963 56.6638 42.2847L56.6667 14.3848C56.6667 14.0732 56.6582 13.4017 56.6383 12.8832ZM28.9482 48.0448H28.9397C25.567 48.0442 22.2483 47.1987 19.2865 45.5855L8.5765 48.3933L11.4438 37.9298C9.22378 34.0774 8.33672 29.6001 8.92018 25.1923C9.50364 20.7844 11.525 16.6921 14.6709 13.5499C17.8168 10.4078 21.9115 8.39126 26.3201 7.81305C30.7287 7.23483 35.2048 8.12722 39.0546 10.3518C42.9044 12.5765 45.9128 16.0091 47.6132 20.1174C49.3136 24.2257 49.6111 28.7803 48.4596 33.075C47.3081 37.3696 44.7719 41.1644 41.2442 43.8709C37.7166 46.5775 33.3945 48.0446 28.9482 48.0448Z" fill="#736666"/>
<path d="M28.9565 11.0528C25.9563 11.0519 23.0106 11.8549 20.4257 13.3781C17.8409 14.9013 15.7114 17.0892 14.2586 19.7143C12.8057 22.3394 12.0827 25.3057 12.1647 28.3048C12.2467 31.304 13.1307 34.2264 14.7247 36.7682L15.1242 37.4028L13.427 43.5965L19.7822 41.9305L20.3942 42.2932C22.9813 43.8253 25.9328 44.6337 28.9395 44.6335H28.948C33.4015 44.6342 37.6728 42.8658 40.8224 39.7173C43.972 36.5688 45.7419 32.298 45.7426 27.8446C45.7434 23.3911 43.975 19.1198 40.8264 15.9702C37.6779 12.8206 33.4071 11.0507 28.9537 11.05L28.9565 11.0528ZM38.8279 35.0512C38.4565 35.6645 37.9622 36.1943 37.3761 36.6073C36.79 37.0203 36.1247 37.3076 35.4222 37.451C34.3615 37.6329 33.273 37.565 32.2432 37.2527C31.2665 36.9483 30.3066 36.5927 29.3674 36.1873C25.8816 34.438 22.9105 31.8125 20.7455 28.5685C19.5645 27.0667 18.8476 25.2529 18.6829 23.3495C18.6692 22.5638 18.8194 21.784 19.1238 21.0596C19.4282 20.3352 19.8802 19.6821 20.4509 19.142C20.6195 18.9496 20.8261 18.7941 21.0577 18.6854C21.2893 18.5767 21.5409 18.517 21.7967 18.5102C22.131 18.5102 22.4682 18.5102 22.7629 18.5272C23.0745 18.5413 23.4882 18.4082 23.8962 19.3942C24.3212 20.4028 25.3299 22.8877 25.4545 23.1398C25.5345 23.272 25.5803 23.4221 25.5878 23.5764C25.5952 23.7308 25.564 23.8846 25.497 24.0238C25.3699 24.3269 25.2001 24.6103 24.9927 24.8653C24.7377 25.16 24.4629 25.5227 24.2362 25.7493C23.9812 26.0015 23.7205 26.2735 24.0124 26.7778C24.7703 28.0756 25.7166 29.2539 26.8202 30.2742C28.0177 31.3388 29.3916 32.1864 30.8804 32.7788C31.3847 33.0338 31.6794 32.9885 31.974 32.6513C32.2687 32.3142 33.2349 31.178 33.572 30.6737C33.9092 30.1693 34.2435 30.2543 34.7054 30.4215C35.1672 30.5887 37.652 31.8098 38.1564 32.0648C38.6607 32.3198 38.9979 32.4417 39.1225 32.6513C39.2607 33.4629 39.1583 34.2971 38.8279 35.0512Z" fill="#736666"/>
</svg>
