<svg width="553" height="140" viewBox="0 0 553 140" fill="none" xmlns="http://www.w3.org/2000/svg">
<path d="M10.25 116.6C14.82 116.6 17.69 119.31 17.69 123.85C17.69 127.03 16.46 129.21 14.04 130.31C14.1 130.4 14.32 130.75 14.7 131.41L17.95 137.62C18.42 138.38 18.2 138.97 17.29 138.97H14.77C13.16 138.97 12.6 138.72 12.12 137.74L9.79001 132.89C9.07001 131.41 8.47001 131.03 6.67001 131.03H5.38V137.68C5.38 138.66 5.06 138.97 4.09 138.97H1.54001C0.560009 138.97 0.25 138.65 0.25 137.68V117.89C0.25 116.91 0.570009 116.6 1.54001 116.6H10.25V116.6ZM12.36 123.84C12.36 123.02 12.14 122.39 11.7 121.92C11.23 121.48 10.6 121.26 9.75 121.26H5.37V126.43H9.75C10.6 126.43 11.23 126.21 11.7 125.74C12.14 125.29 12.36 124.66 12.36 123.84Z" fill="#2E2B6E"/>
<path d="M24.05 117.86C24.05 116.95 24.33 116.6 25.31 116.6H27.93C28.84 116.6 29.19 116.95 29.19 117.86V137.71C29.19 138.62 28.84 138.97 27.93 138.97H25.31C24.33 138.97 24.05 138.62 24.05 137.71V117.86Z" fill="#2E2B6E"/>
<path d="M35.59 124.6C35.59 119.31 38.99 116.12 44.89 116.12C50.81 116.12 54.22 119.3 54.22 124.6V130.97C54.22 136.26 50.82 139.45 44.89 139.45C39 139.45 35.59 136.27 35.59 130.97V124.6ZM49.07 124.51C49.07 122.05 47.68 120.82 44.88 120.82C42.2 120.82 40.72 122.08 40.72 124.51V131.06C40.72 133.49 42.2 134.75 44.88 134.75C47.68 134.75 49.07 133.52 49.07 131.06V124.51Z" fill="#2E2B6E"/>
<path d="M86.86 126.33C87.84 126.33 88.15 126.65 88.15 127.62V131.94C88.15 134.15 87.33 135.94 85.69 137.33C84.02 138.75 81.75 139.44 78.82 139.44C72.93 139.44 69.52 136.26 69.52 130.96V124.59C69.52 119.3 72.92 116.11 78.82 116.11C83.42 116.11 86.35 117.87 87.64 121.4C87.96 122.19 87.7 122.75 86.85 123.04L84.42 123.89C83.51 124.17 83.13 124.02 82.78 123.1C82.18 121.56 80.86 120.8 78.81 120.8C76.04 120.8 74.65 122.06 74.65 124.55V131C74.65 133.49 76.04 134.75 78.81 134.75C81.43 134.75 83.03 133.62 83.03 132.01V130.88H79.22C78.24 130.88 77.93 130.56 77.93 129.59V127.64C77.93 126.66 78.25 126.35 79.22 126.35H86.86V126.33Z" fill="#2E2B6E"/>
<path d="M104.38 116.6C108.95 116.6 111.82 119.31 111.82 123.85C111.82 127.03 110.59 129.21 108.17 130.31C108.23 130.4 108.45 130.75 108.83 131.41L112.08 137.62C112.55 138.38 112.33 138.97 111.42 138.97H108.9C107.29 138.97 106.73 138.72 106.25 137.74L103.92 132.89C103.2 131.41 102.6 131.03 100.8 131.03H99.51V137.68C99.51 138.66 99.2 138.97 98.22 138.97H95.67C94.69 138.97 94.38 138.65 94.38 137.68V117.89C94.38 116.91 94.7 116.6 95.67 116.6H104.38V116.6ZM106.49 123.84C106.49 123.02 106.27 122.39 105.83 121.92C105.36 121.48 104.73 121.26 103.88 121.26H99.5V126.43H103.88C104.73 126.43 105.36 126.21 105.83 125.74C106.27 125.29 106.49 124.66 106.49 123.84Z" fill="#2E2B6E"/>
<path d="M137.62 137.71C137.94 138.56 137.65 138.97 136.77 138.97H134.41C132.87 138.97 132.36 138.72 132.08 137.8L131.1 134.84H123.32L122.31 137.8C121.96 138.71 121.55 138.97 120.01 138.97H117.84C116.96 138.97 116.67 138.56 116.99 137.71L124.52 117.67C124.8 116.82 125.18 116.6 126.1 116.6H128.53C129.44 116.6 129.82 116.82 130.11 117.61L137.62 137.71ZM128.14 125.8C127.73 124.45 127.42 122.74 127.38 121.89L127.35 121.29H127.04C127.07 122.77 126.82 124.28 126.32 125.76L124.68 130.68H129.78L128.14 125.8Z" fill="#2E2B6E"/>
<path d="M159.4 116.6C160.38 116.6 160.66 116.92 160.66 117.89V137.68C160.66 138.66 160.38 138.97 159.4 138.97H156.85C156.25 138.97 155.84 138.78 155.59 138.37L149.41 128.98C148.31 127.34 147.43 125.39 146.76 123.09H146.54C147.14 125.93 147.42 128.29 147.42 130.15V137.68C147.42 138.66 147.1 138.97 146.13 138.97H143.8C142.82 138.97 142.51 138.65 142.51 137.68V117.89C142.51 116.91 142.83 116.6 143.8 116.6H146.42C146.96 116.6 147.37 116.79 147.65 117.2L153.95 126.75C154.71 127.88 155.4 129.37 155.75 130.18C156.1 130.99 156.51 132.29 156.54 132.39H156.79C156.13 130.31 155.78 127.98 155.78 125.43V117.9C155.78 116.92 156.1 116.61 157.07 116.61H159.4V116.6Z" fill="#2E2B6E"/>
<path d="M176.36 116.6C182.28 116.6 185.66 119.78 185.66 125.08V130.5C185.66 135.79 182.29 138.98 176.36 138.98H168.99C168.01 138.98 167.7 138.66 167.7 137.69V117.9C167.7 116.92 168.02 116.61 168.99 116.61H176.36V116.6ZM180.55 125.07C180.55 122.52 179.13 121.26 176.33 121.26H172.83V134.27H176.33C179.13 134.27 180.55 133.01 180.55 130.49V125.07Z" fill="#2E2B6E"/>
<path d="M206.01 116.6C206.99 116.6 207.3 116.92 207.3 117.89V120C207.3 120.98 206.98 121.26 206.01 121.26H197.19V125.32H204.44C205.42 125.32 205.73 125.6 205.73 126.58V128.69C205.73 129.67 205.42 129.98 204.44 129.98H197.19V134.27H206.33C207.24 134.27 207.62 134.65 207.62 135.56V137.67C207.62 138.65 207.31 138.96 206.33 138.96H193.35C192.37 138.96 192.06 138.64 192.06 137.67V117.88C192.06 116.9 192.38 116.59 193.35 116.59H206.01V116.6Z" fill="#2E2B6E"/>
<path d="M239.86 126.33C240.84 126.33 241.15 126.65 241.15 127.62V131.94C241.15 134.15 240.33 135.94 238.69 137.33C237.02 138.75 234.75 139.44 231.82 139.44C225.93 139.44 222.52 136.26 222.52 130.96V124.59C222.52 119.3 225.92 116.11 231.82 116.11C236.42 116.11 239.35 117.87 240.64 121.4C240.96 122.19 240.7 122.75 239.85 123.04L237.42 123.89C236.51 124.17 236.13 124.02 235.78 123.1C235.18 121.56 233.86 120.8 231.81 120.8C229.04 120.8 227.65 122.06 227.65 124.55V131C227.65 133.49 229.04 134.75 231.81 134.75C234.43 134.75 236.03 133.62 236.03 132.01V130.88H232.22C231.24 130.88 230.93 130.56 230.93 129.59V127.64C230.93 126.66 231.25 126.35 232.22 126.35H239.86V126.33Z" fill="#2E2B6E"/>
<path d="M266.26 137.71C266.58 138.56 266.29 138.97 265.41 138.97H263.05C261.51 138.97 261 138.72 260.72 137.8L259.74 134.84H251.96L250.95 137.8C250.6 138.71 250.19 138.97 248.65 138.97H246.48C245.6 138.97 245.31 138.56 245.63 137.71L253.16 117.67C253.44 116.82 253.82 116.6 254.74 116.6H257.17C258.08 116.6 258.46 116.82 258.75 117.61L266.26 137.71ZM256.78 125.8C256.37 124.45 256.06 122.74 256.02 121.89L255.99 121.29H255.68C255.71 122.77 255.46 124.28 254.96 125.76L253.32 130.68H258.42L256.78 125.8Z" fill="#2E2B6E"/>
<path d="M291.79 116.6C292.77 116.6 293.08 116.88 293.08 117.86V137.71C293.08 138.69 292.76 138.97 291.79 138.97H289.43C288.45 138.97 288.17 138.62 288.17 137.71V130.56C288.17 128.54 288.52 126.18 289.21 123.47H288.93C288.3 125.55 287.48 127.5 286.44 129.33L284.2 133.33C283.82 133.99 283.54 134.24 282.78 134.24H281.33C280.54 134.24 280.26 134.05 279.88 133.33L277.61 129.33C276.7 127.82 275.94 125.86 275.28 123.47H275C275.63 126.15 275.95 128.54 275.95 130.59V137.71C275.95 138.62 275.67 138.97 274.69 138.97H272.45C271.47 138.97 271.16 138.62 271.16 137.71V117.86C271.16 116.95 271.48 116.6 272.45 116.6H274.5C275.51 116.6 275.82 116.79 276.3 117.55L282.07 128.2L287.87 117.58C288.34 116.73 288.59 116.6 289.57 116.6H291.79Z" fill="#2E2B6E"/>
<path d="M314.04 116.6C315.02 116.6 315.33 116.92 315.33 117.89V120C315.33 120.98 315.01 121.26 314.04 121.26H305.22V125.32H312.47C313.45 125.32 313.76 125.6 313.76 126.58V128.69C313.76 129.67 313.45 129.98 312.47 129.98H305.22V134.27H314.36C315.27 134.27 315.65 134.65 315.65 135.56V137.67C315.65 138.65 315.34 138.96 314.36 138.96H301.38C300.4 138.96 300.09 138.64 300.09 137.67V117.88C300.09 116.9 300.41 116.59 301.38 116.59H314.04V116.6Z" fill="#2E2B6E"/>
<path d="M339.82 116.6C345.74 116.6 349.12 119.78 349.12 125.08V130.5C349.12 135.79 345.75 138.98 339.82 138.98H332.45C331.47 138.98 331.16 138.66 331.16 137.69V117.9C331.16 116.92 331.48 116.61 332.45 116.61H339.82V116.6ZM344.01 125.07C344.01 122.52 342.59 121.26 339.79 121.26H336.29V134.27H339.79C342.59 134.27 344.01 133.01 344.01 130.49V125.07Z" fill="#2E2B6E"/>
<path d="M369.47 116.6C370.45 116.6 370.76 116.92 370.76 117.89V120C370.76 120.98 370.44 121.26 369.47 121.26H360.65V125.32H367.9C368.88 125.32 369.19 125.6 369.19 126.58V128.69C369.19 129.67 368.88 129.98 367.9 129.98H360.65V134.27H369.79C370.7 134.27 371.08 134.65 371.08 135.56V137.67C371.08 138.65 370.77 138.96 369.79 138.96H356.81C355.83 138.96 355.52 138.64 355.52 137.67V117.88C355.52 116.9 355.84 116.59 356.81 116.59H369.47V116.6Z" fill="#2E2B6E"/>
<path d="M395.22 116.6C396.07 116.6 396.35 117.01 396.04 117.86L388.86 137.9C388.58 138.75 388.17 138.97 387.28 138.97H384.73C383.82 138.97 383.44 138.75 383.15 137.96L375.94 117.86C375.62 117.01 375.91 116.6 376.79 116.6H379.15C380.76 116.6 381.2 116.85 381.48 117.77L385.17 129.52C385.45 130.53 385.77 131.98 385.9 132.73L385.96 133.3H386.21C386.37 131.95 386.65 130.72 387 129.55L390.62 117.76C390.9 116.85 391.38 116.59 392.92 116.59H395.22V116.6Z" fill="#2E2B6E"/>
<path d="M414.89 116.6C415.87 116.6 416.18 116.92 416.18 117.89V120C416.18 120.98 415.86 121.26 414.89 121.26H406.07V125.32H413.32C414.3 125.32 414.61 125.6 414.61 126.58V128.69C414.61 129.67 414.3 129.98 413.32 129.98H406.07V134.27H415.21C416.12 134.27 416.5 134.65 416.5 135.56V137.67C416.5 138.65 416.19 138.96 415.21 138.96H402.23C401.25 138.96 400.94 138.64 400.94 137.67V117.88C400.94 116.9 401.26 116.59 402.23 116.59H414.89V116.6Z" fill="#2E2B6E"/>
<path d="M426.33 116.6C427.31 116.6 427.62 116.92 427.62 117.89V134.27H435.75C436.66 134.27 437.04 134.65 437.04 135.56V137.67C437.04 138.65 436.72 138.96 435.75 138.96H423.78C422.8 138.96 422.49 138.64 422.49 137.67V117.88C422.49 116.9 422.81 116.59 423.78 116.59H426.33V116.6Z" fill="#2E2B6E"/>
<path d="M441.58 124.6C441.58 119.31 444.98 116.12 450.88 116.12C456.8 116.12 460.21 119.3 460.21 124.6V130.97C460.21 136.26 456.81 139.45 450.88 139.45C444.99 139.45 441.58 136.27 441.58 130.97V124.6ZM455.07 124.51C455.07 122.05 453.68 120.82 450.88 120.82C448.2 120.82 446.72 122.08 446.72 124.51V131.06C446.72 133.49 448.2 134.75 450.88 134.75C453.68 134.75 455.07 133.52 455.07 131.06V124.51Z" fill="#2E2B6E"/>
<path d="M476.34 116.6C481.1 116.6 484.06 119.47 484.06 124.16C484.06 128.86 481.13 131.69 476.34 131.69H471.74V137.68C471.74 138.66 471.42 138.97 470.45 138.97H467.9C466.92 138.97 466.61 138.65 466.61 137.68V117.89C466.61 116.91 466.93 116.6 467.9 116.6H476.34V116.6ZM475.8 127C477.66 127 478.73 125.96 478.73 124.16C478.73 122.36 477.66 121.26 475.8 121.26H471.74V127H475.8Z" fill="#2E2B6E"/>
<path d="M503.85 116.6C504.83 116.6 505.14 116.92 505.14 117.89V120C505.14 120.98 504.82 121.26 503.85 121.26H495.03V125.32H502.28C503.26 125.32 503.57 125.6 503.57 126.58V128.69C503.57 129.67 503.26 129.98 502.28 129.98H495.03V134.27H504.17C505.08 134.27 505.46 134.65 505.46 135.56V137.67C505.46 138.65 505.15 138.96 504.17 138.96H491.19C490.21 138.96 489.9 138.64 489.9 137.67V117.88C489.9 116.9 490.22 116.59 491.19 116.59H503.85V116.6Z" fill="#2E2B6E"/>
<path d="M521.47 116.6C526.04 116.6 528.91 119.31 528.91 123.85C528.91 127.03 527.68 129.21 525.26 130.31C525.32 130.4 525.54 130.75 525.92 131.41L529.17 137.62C529.64 138.38 529.42 138.97 528.51 138.97H525.99C524.38 138.97 523.82 138.72 523.34 137.74L521.01 132.89C520.29 131.41 519.69 131.03 517.89 131.03H516.6V137.68C516.6 138.66 516.28 138.97 515.31 138.97H512.76C511.78 138.97 511.47 138.65 511.47 137.68V117.89C511.47 116.91 511.79 116.6 512.76 116.6H521.47V116.6ZM523.58 123.84C523.58 123.02 523.36 122.39 522.92 121.92C522.45 121.48 521.82 121.26 520.97 121.26H516.59V126.43H520.97C521.82 126.43 522.45 126.21 522.92 125.74C523.36 125.29 523.58 124.66 523.58 123.84Z" fill="#2E2B6E"/>
<path d="M543.65 116.12C548.16 116.12 550.61 117.6 552.09 120.75C552.5 121.63 552.31 122.07 551.4 122.45L549.01 123.49C548.16 123.87 547.84 123.71 547.37 122.86C546.68 121.47 545.45 120.78 543.65 120.78C541.03 120.78 539.93 121.44 539.93 122.95C539.93 123.74 540.37 124.3 541.38 124.65C542.36 125 543.11 125.12 544.66 125.28C546.42 125.5 547.5 125.66 549.1 126.29C549.89 126.64 550.55 127.01 551.05 127.49C552.03 128.44 552.81 130.07 552.81 132.22C552.81 134.39 551.96 136.16 550.29 137.45C548.62 138.77 546.32 139.44 543.45 139.44C538.82 139.44 535.86 137.74 534.6 134.34C534.32 133.43 534.54 133.05 535.42 132.7L537.72 131.88C538.63 131.53 538.98 131.66 539.39 132.64C540.05 134.09 541.41 134.81 543.45 134.81C546.25 134.81 547.64 133.99 547.64 132.32C547.64 130.9 546.13 130.33 543.39 130.05C542.38 129.92 541.59 129.8 541 129.7C540.4 129.61 539.68 129.42 538.76 129.1C537.85 128.78 537.12 128.41 536.62 127.97C535.58 127.09 534.67 125.42 534.67 123.18C534.67 118.99 537.95 116.12 543.65 116.12Z" fill="#2E2B6E"/>
<path d="M75.77 0.689941C85.99 0.689941 93.32 2.99993 97.77 7.61993C102.21 12.2399 104.43 19.0899 104.43 28.1499V35.7499C104.43 43.3999 102.87 49.4399 99.76 53.8799C96.65 58.3299 91.58 61.1699 84.56 62.4099L107.36 90.67C107.8 91.12 107.94 91.78 107.76 92.67C107.58 93.56 106.87 93.9999 105.63 93.9999H88.43C87.27 93.9999 86.47 93.8699 86.03 93.5999C85.59 93.3299 85.14 92.8899 84.7 92.2699L63.64 64.5399H20.58V91.0699C20.58 93.0299 19.6 93.9999 17.65 93.9999H3.25C1.2 93.9999 0.179993 93.0199 0.179993 91.0699V4.67993C0.179993 2.00993 1.50999 0.679932 4.17999 0.679932H75.77V0.689941ZM20.57 48.2799H71.63C76.16 48.2799 79.36 47.2999 81.23 45.3499C83.1 43.3999 84.03 40.4199 84.03 36.4199V30.8199C84.03 26.8199 83.1 23.8399 81.23 21.8899C79.36 19.9399 76.16 18.9599 71.63 18.9599H22.3C21.14 18.9599 20.57 19.4899 20.57 20.5599V48.2799Z" fill="#2E2B6E"/>
<path d="M302.35 0.689941C304.3 0.689941 305.28 1.66993 305.28 3.61993V16.6899C305.28 18.7399 304.3 19.7599 302.35 19.7599H235.56C232.09 19.7599 229.23 20.0499 226.96 20.6299C224.69 21.2099 222.89 22.1899 221.56 23.5599C220.23 24.9399 219.27 26.7799 218.69 29.0899C218.11 31.3999 217.82 34.3399 217.82 37.8899V57.0899C217.82 60.6499 218.11 63.5999 218.69 65.9599C219.27 68.3199 220.22 70.1799 221.56 71.5599C222.9 72.9399 224.69 73.9199 226.96 74.4899C229.23 75.0699 232.09 75.3599 235.56 75.3599H279.56C281.87 75.3599 283.56 74.7599 284.63 73.5599C285.7 72.3599 286.23 70.2499 286.23 67.2299V56.4299C286.23 55.2799 285.7 54.7 284.63 54.7H245.57C243.61 54.7 242.64 53.6799 242.64 51.6299V41.6299C242.64 39.5899 243.62 38.5599 245.57 38.5599H301.17C303.84 38.5599 305.17 39.8899 305.17 42.5599V73.6299C305.17 81.0999 303.75 86.3599 300.9 89.4299C298.06 92.4999 293.97 94.0299 288.63 94.0299H234.77C228.01 94.0299 222.28 93.4099 217.57 92.1599C212.86 90.9199 209.01 88.8899 206.04 86.0899C203.06 83.2899 200.88 79.6499 199.51 75.1599C198.13 70.6699 197.44 65.2299 197.44 58.8299V35.8999C197.44 29.4999 198.13 24.0799 199.51 19.6299C200.89 15.1899 203.06 11.5599 206.04 8.75993C209.02 5.95993 212.86 3.91994 217.57 2.62994C222.28 1.33994 228.01 0.699936 234.77 0.699936H302.35V0.689941Z" fill="#2E2B6E"/>
<path d="M425.8 0.689941C427.75 0.689941 428.73 1.66993 428.73 3.61993V16.6899C428.73 18.7399 427.75 19.7599 425.8 19.7599H359.01C355.54 19.7599 352.68 20.0499 350.41 20.6299C348.14 21.2099 346.34 22.1899 345.01 23.5599C343.68 24.9399 342.72 26.7799 342.14 29.0899C341.56 31.3999 341.27 34.3399 341.27 37.8899V57.0899C341.27 60.6499 341.56 63.5999 342.14 65.9599C342.72 68.3199 343.67 70.1799 345.01 71.5599C346.35 72.9399 348.14 73.9199 350.41 74.4899C352.68 75.0699 355.54 75.3599 359.01 75.3599H403.01C405.32 75.3599 407.01 74.7599 408.08 73.5599C409.15 72.3599 409.68 70.2499 409.68 67.2299V56.4299C409.68 55.2799 409.15 54.7 408.08 54.7H369.02C367.06 54.7 366.09 53.6799 366.09 51.6299V41.6299C366.09 39.5899 367.07 38.5599 369.02 38.5599H424.62C427.29 38.5599 428.62 39.8899 428.62 42.5599V73.6299C428.62 81.0999 427.2 86.3599 424.35 89.4299C421.51 92.4999 417.42 94.0299 412.08 94.0299H358.22C351.46 94.0299 345.73 93.4099 341.02 92.1599C336.31 90.9199 332.46 88.8899 329.49 86.0899C326.51 83.2899 324.33 79.6499 322.96 75.1599C321.58 70.6699 320.89 65.2299 320.89 58.8299V35.8999C320.89 29.4999 321.58 24.0799 322.96 19.6299C324.34 15.1899 326.51 11.5599 329.49 8.75993C332.47 5.95993 336.31 3.91994 341.02 2.62994C345.73 1.33994 351.46 0.699936 358.22 0.699936H425.8V0.689941Z" fill="#2E2B6E"/>
<path d="M511.8 0.689941C519 0.689941 525.18 1.41994 530.33 2.88994C535.49 4.35994 539.71 6.61994 543 9.68994C546.29 12.7599 548.71 16.6699 550.27 21.4199C551.82 26.1699 552.6 31.7999 552.6 38.2799V56.4099C552.6 62.8999 551.82 68.5199 550.27 73.2799C548.71 78.0399 546.29 81.9499 543 85.0099C539.71 88.0799 535.49 90.3399 530.33 91.8099C525.17 93.2799 519 94.0099 511.8 94.0099H449.4C446.73 94.0099 445.4 92.6799 445.4 90.0099V4.67993C445.4 2.00993 446.73 0.679932 449.4 0.679932H511.8V0.689941ZM465.8 73.7499C465.8 74.9099 466.38 75.4799 467.53 75.4799H511.26C515.17 75.4799 518.46 75.1299 521.13 74.4099C523.8 73.6999 525.95 72.5399 527.59 70.9399C529.23 69.3399 530.41 67.2099 531.12 64.5399C531.83 61.8699 532.19 58.59 532.19 54.67V40.0099C532.19 36.0999 531.83 32.8099 531.12 30.1399C530.41 27.4699 529.23 25.3399 527.59 23.7399C525.95 22.1399 523.79 20.9899 521.13 20.2699C518.46 19.5599 515.17 19.1999 511.26 19.1999H467.53C466.37 19.1999 465.8 19.8199 465.8 21.0699V73.7499Z" fill="#2E2B6E"/>
<path d="M133.41 90.1699C130.77 90.1699 128.63 88.0299 128.63 85.3899C128.63 82.7499 130.77 80.6099 133.41 80.6099C136.05 80.6099 138.19 82.7499 138.19 85.3899C138.19 88.0299 136.05 90.1699 133.41 90.1699Z" fill="white"/>
<path d="M154.96 1.61987H154.74C147.21 1.61987 141.1 7.72987 141.1 15.2599C141.1 22.7899 147.21 28.8999 154.74 28.8999H154.96C162.49 28.8999 168.6 22.7899 168.6 15.2599C168.6 7.72987 162.5 1.61987 154.96 1.61987ZM186.47 78.0599C186.36 76.7899 185.3 75.8199 184.03 75.8199L180.61 75.8099C179.05 75.8099 177.75 74.6199 177.6 73.0699L177.22 69.0899C177.07 67.5399 175.77 66.3499 174.21 66.3499H167.42C165.85 66.3499 164.55 65.1499 164.41 63.5899L161.73 37.0499C161.67 36.3899 161.02 35.9699 160.38 36.1699C158.67 36.6899 156.85 36.9799 154.97 36.9799H154.73C153.09 36.9799 151.5 36.7599 149.98 36.3599C149.36 36.1999 148.73 36.5999 148.68 37.2399L145.83 63.5999C145.68 65.1499 144.38 66.3399 142.82 66.3399H135.49C133.93 66.3399 132.62 67.5299 132.48 69.0899L132.12 73.0499C131.98 74.6099 130.68 75.7999 129.11 75.7999L125.76 75.8099C124.49 75.8099 123.44 76.7799 123.32 78.0399L122.32 92.2799C122.19 93.7099 123.32 94.9399 124.76 94.9399H184.98C186.41 94.9399 187.54 93.7199 187.42 92.2899L186.47 78.0599ZM133.41 90.1699C130.77 90.1699 128.63 88.0299 128.63 85.3899C128.63 82.7499 130.77 80.6099 133.41 80.6099C136.05 80.6099 138.19 82.7499 138.19 85.3899C138.19 88.0299 136.05 90.1699 133.41 90.1699Z" fill="#ED1C24"/>
</svg>
